<?xml version="1.0" encoding="utf-8"?>
<!-- Generator: Adobe Illustrator 27.0.0, SVG Export Plug-In . SVG Version: 6.00 Build 0)  -->
<svg version="1.1" id="Layer_1" xmlns="http://www.w3.org/2000/svg" xmlns:xlink="http://www.w3.org/1999/xlink" x="0px" y="0px"
	 viewBox="0 0 1513.7 380.8" style="enable-background:new 0 0 1513.7 380.8;" xml:space="preserve">
<style type="text/css">
	.st0{fill:url(#SVGID_1_);}
	.st1{fill:url(#SVGID_00000161623373650250909440000015600201332785582253_);}
	.st2{fill:url(#SVGID_00000134957173779181542920000003931661461346088383_);}
	.st3{fill:url(#SVGID_00000143613270727139568660000014539161793356432772_);}
	.st4{fill:url(#SVGID_00000094620064934317266180000008862393853290369438_);}
	.st5{fill:url(#SVGID_00000170979283149971585000000012843392380184415393_);}
	.st6{fill:url(#SVGID_00000164494613434676622520000005073481890183153039_);}
	.st7{fill:url(#SVGID_00000108990767107124253780000006819987378974160564_);}
	.st8{fill:url(#SVGID_00000176732472847378922320000012640524558759401878_);}
	.st9{fill:url(#SVGID_00000069365004360733548240000013379157280561635237_);}
	.st10{fill:url(#SVGID_00000158726385691154316160000014212919481165152696_);}
	.st11{fill:url(#SVGID_00000060027842491287855930000013791296802656057513_);}
	.st12{fill:url(#SVGID_00000039092111209468585060000003433628508485111225_);}
	.st13{fill:url(#SVGID_00000132061052244014565580000014300522181825298367_);}
	.st14{fill:url(#SVGID_00000056426318308432308750000017438065974809989267_);}
	.st15{fill:url(#SVGID_00000119104997652175973900000009179971132757946043_);}
	.st16{fill:url(#SVGID_00000008145670649042960350000005730191337528329663_);}
	.st17{fill:url(#SVGID_00000095335387698959164090000003244372040770509225_);}
	.st18{fill:url(#SVGID_00000042695458969340077270000017438604547273850042_);}
	.st19{fill:#003F9B;}
	
		.st20{opacity:0.38;fill:url(#SVGID_00000038375671246520656560000013662611560179883448_);stroke:#DDDEDE;stroke-width:0.25;stroke-miterlimit:10;}
	
		.st21{opacity:0.38;fill:url(#SVGID_00000036248828383232264900000001187525264871150777_);stroke:#DDDEDE;stroke-width:0.25;stroke-miterlimit:10;}
	
		.st22{opacity:0.38;fill:url(#SVGID_00000029011184671253376970000004164357530559120515_);stroke:#DDDEDE;stroke-width:0.25;stroke-miterlimit:10;}
	.st23{fill:url(#SVGID_00000136394372183953782630000005131429938960825989_);}
	.st24{fill:url(#SVGID_00000111176422528320258100000015820754281601116351_);}
</style>
<g>
	<radialGradient id="SVGID_1_" cx="998.9291" cy="61.1645" r="177.3485" gradientUnits="userSpaceOnUse">
		<stop  offset="0" style="stop-color:#F4313A"/>
		<stop  offset="1" style="stop-color:#CE0045"/>
	</radialGradient>
	<path class="st0" d="M1215.9,227.3c34.4-15.4,88.1-16.4,88.1-16.4l-36.4-34.6l102.5-111.6c12.4-13.5,34.8-12.1,45.2,2.8l71.7,102.3
		l-55.2-60.6c-7.7-8.5-21.5-8.5-29.3-0.1l-169.9,183.7c-16.9,18.3-45.5,21.4-66.3,7.2C1085.9,245,897.2,117.3,851.8,96.8
		c-55.1-24.9-123.6,18.7-130.3,23l115.7-82.4c50.7-36.1,121.2-32.9,168,7.6l195.1,168.7v26C1204.8,234.8,1210.1,230.7,1215.9,227.3z
		"/>
	
		<radialGradient id="SVGID_00000076588182868728150510000011267999252839029951_" cx="431.4963" cy="149.9462" r="234.8092" gradientUnits="userSpaceOnUse">
		<stop  offset="0" style="stop-color:#F4313A"/>
		<stop  offset="1" style="stop-color:#CE0045"/>
	</radialGradient>
	<path style="fill:url(#SVGID_00000076588182868728150510000011267999252839029951_);" d="M43.1,214.7c0-1,0.5-1.5,1.5-1.5h18.6
		c1,0,1.5,0.5,1.5,1.5v36.1c0.2,2.5,1.3,4.6,3.3,6c2,1.5,4.8,2.2,8.3,2.2h3.4c2,0,3.6,0.7,4.6,2.1c1,1.4,1.5,3.8,1.5,7
		c0,6.2-2,9.3-6.1,9.3c-3.4,0-6.3-0.3-8.7-1c-2.4-0.7-4.5-2.1-6.3-4.2v2.4c0,11.6-2.2,20.2-6.7,25.7c-4.5,5.6-12.1,8.3-22.9,8.3h-7
		c-1,0-1.5-0.5-1.5-1.5v-15.4c0-1,0.5-1.5,1.5-1.5h3.4c2.8,0,4.9-0.4,6.4-1.3s2.7-2.1,3.4-3.8c0.8-1.7,1.2-3.7,1.5-6.2
		c0.2-2.4,0.3-5.2,0.3-8.4V214.7z"/>
	
		<radialGradient id="SVGID_00000052815637689933928570000010204796393211485359_" cx="431.4963" cy="149.9462" r="234.8092" gradientUnits="userSpaceOnUse">
		<stop  offset="0" style="stop-color:#F4313A"/>
		<stop  offset="1" style="stop-color:#CE0045"/>
	</radialGradient>
	<path style="fill:url(#SVGID_00000052815637689933928570000010204796393211485359_);" d="M79.8,277.5c-2,0-3.5-0.6-4.4-1.8
		c-0.9-1.2-1.3-3.4-1.3-6.8c0-3.6,0.4-6.1,1.2-7.6c0.8-1.5,2.3-2.3,4.4-2.3h19.7c2,0,3.6,0.7,4.6,2.2c1,1.5,1.5,3.9,1.5,7.3
		c0,3.8-0.5,6.2-1.5,7.3c-1,1.1-2.5,1.7-4.7,1.7H79.8z"/>
	
		<radialGradient id="SVGID_00000096755228939372615320000017091097381149998015_" cx="431.4963" cy="149.9462" r="234.8092" gradientUnits="userSpaceOnUse">
		<stop  offset="0" style="stop-color:#F4313A"/>
		<stop  offset="1" style="stop-color:#CE0045"/>
	</radialGradient>
	<path style="fill:url(#SVGID_00000096755228939372615320000017091097381149998015_);" d="M99.5,277.5c-2,0-3.5-0.6-4.4-1.8
		c-0.9-1.2-1.3-3.4-1.3-6.8c0-3.6,0.4-6.1,1.2-7.6c0.8-1.5,2.3-2.3,4.4-2.3h19.7c2,0,3.6,0.7,4.6,2.2c1,1.5,1.5,3.9,1.5,7.3
		c0,3.8-0.5,6.2-1.5,7.3c-1,1.1-2.5,1.7-4.7,1.7H99.5z"/>
	
		<radialGradient id="SVGID_00000093169593789603284630000000716850165312737941_" cx="431.4963" cy="149.9462" r="234.8092" gradientUnits="userSpaceOnUse">
		<stop  offset="0" style="stop-color:#F4313A"/>
		<stop  offset="1" style="stop-color:#CE0045"/>
	</radialGradient>
	<path style="fill:url(#SVGID_00000093169593789603284630000000716850165312737941_);" d="M119.7,277.5c-2.1,0-3.7-0.6-4.7-1.9
		c-1-1.3-1.5-3.8-1.5-7.5c0-3.3,0.5-5.6,1.5-7.1c1-1.4,2.5-2.2,4.6-2.2h11.8c-1.6-3.3-2.5-7.9-2.5-13.7c0-6.7,0.9-12.3,2.8-16.7
		c1.9-4.4,4.4-7.9,7.6-10.6c3.2-2.6,6.8-4.5,10.9-5.6c4.1-1.1,8.3-1.7,12.6-1.7c4.5,0,8.8,0.6,12.9,1.7c4.1,1.1,7.7,3,10.8,5.7
		c3.1,2.6,5.6,6.2,7.4,10.6c1.8,4.4,2.8,10,2.8,16.7c0,6.2-0.9,11.4-2.6,15.5c-1.7,4.1-4.1,7.4-7.1,9.9c-3,2.5-6.6,4.3-10.7,5.3
		c-4.1,1-8.6,1.5-13.4,1.5H119.7z M162.8,229.1c-8.3,0-12.5,5-12.5,14.9c0,5.9,1,9.9,3.1,12.2c2.1,2.2,5.2,3.3,9.3,3.3
		c4.2,0,7.3-1.1,9.3-3.3c2.1-2.2,3.1-6.1,3.1-11.8C175.3,234.2,171.1,229.1,162.8,229.1z M153.1,197.7c-1,0-1.5-0.5-1.5-1.5v-15
		c0-1,0.5-1.5,1.5-1.5H172c1,0,1.5,0.5,1.5,1.5v15c0,1-0.5,1.5-1.5,1.5H153.1z"/>
	
		<radialGradient id="SVGID_00000090982979893468459420000003181654524343171470_" cx="431.4963" cy="149.9462" r="234.8092" gradientUnits="userSpaceOnUse">
		<stop  offset="0" style="stop-color:#F4313A"/>
		<stop  offset="1" style="stop-color:#CE0045"/>
	</radialGradient>
	<path style="fill:url(#SVGID_00000090982979893468459420000003181654524343171470_);" d="M213,175.1c0-1,0.5-1.5,1.5-1.5h18.4
		c1,0,1.5,0.5,1.5,1.5v75.8c0,3.1,0.6,5.2,1.8,6.3c1.2,1.2,3,1.8,5.6,1.8h4.1c2,0,3.6,0.7,4.6,2.2c1,1.5,1.5,3.9,1.5,7.4
		c0,3.7-0.5,6.1-1.5,7.2c-1,1.1-2.5,1.7-4.7,1.7h-15.1c-6.4,0-10.9-1.6-13.7-4.7c-2.7-3.1-4.1-8-4.1-14.6V175.1z"/>
	
		<radialGradient id="SVGID_00000057826235520377514590000002371542377200402106_" cx="431.4963" cy="149.9462" r="234.8092" gradientUnits="userSpaceOnUse">
		<stop  offset="0" style="stop-color:#F4313A"/>
		<stop  offset="1" style="stop-color:#CE0045"/>
	</radialGradient>
	<path style="fill:url(#SVGID_00000057826235520377514590000002371542377200402106_);" d="M338.1,277.5c-4,0-7.2-0.7-9.7-2.2
		c-2.5-1.5-4.4-3.4-5.7-5.9c-1.4,3.2-3.6,5.3-6.5,6.4c-2.9,1.1-6.9,1.7-11.8,1.7h-6c-4,0-7.2-0.7-9.8-2.2c-2.5-1.5-4.5-3.4-5.8-5.9
		c-1.4,3.3-3.6,5.4-6.4,6.5c-2.9,1.1-6.9,1.6-12.1,1.6H246c-2,0-3.6-0.6-4.6-1.8c-1-1.2-1.5-3.4-1.5-6.8c0-3.6,0.5-6.1,1.5-7.6
		c1-1.5,2.5-2.3,4.7-2.3h10.2c3,0,4.8-0.7,5.7-2.2c0.8-1.5,1.2-4.2,1.2-8.2v-22.9c0-1,0.5-1.5,1.5-1.5h18.6c1,0,1.5,0.5,1.5,1.5
		v25.1c0,3.3,1,5.5,3.1,6.6c2,1.1,4.3,1.7,6.7,1.7c1.9,0,3.5-0.2,4.7-0.6c1.2-0.4,2-1,2.5-1.8c0.5-0.8,0.8-1.9,1-3.3
		c0.2-1.4,0.2-3.1,0.2-5.1v-22.5c0-1,0.5-1.5,1.5-1.5h18.6c1,0,1.5,0.5,1.5,1.5v24.9c0,3.5,1,5.7,3.1,6.8c2.1,1.1,4.5,1.6,7.1,1.6
		c1.9,0,3.4-0.2,4.4-0.6c1-0.4,1.8-1,2.3-1.9c0.5-0.9,0.8-2,0.9-3.4c0.1-1.4,0.2-3.1,0.2-5.1v-33.3c0-1,0.5-1.5,1.5-1.5h18.6
		c1,0,1.5,0.5,1.5,1.5v36.1c0.2,2.5,1.3,4.6,3.3,6c2,1.5,4.8,2.2,8.3,2.2h3.5c2,0,3.6,0.7,4.6,2.1c1,1.4,1.5,3.8,1.5,7
		c0,6.2-2,9.3-6.1,9.3c-3.9,0-7.2-0.5-10.1-1.4c-2.9-0.9-5.2-3-7.2-6.3c-1.4,3-3.5,5-6.3,6c-2.8,1.1-5.9,1.6-9.5,1.6H338.1z"/>
	
		<radialGradient id="SVGID_00000168832690027862661110000016714200100321118378_" cx="431.4963" cy="149.9462" r="234.8092" gradientUnits="userSpaceOnUse">
		<stop  offset="0" style="stop-color:#F4313A"/>
		<stop  offset="1" style="stop-color:#CE0045"/>
	</radialGradient>
	<path style="fill:url(#SVGID_00000168832690027862661110000016714200100321118378_);" d="M379.5,277.5c-2,0-3.5-0.6-4.4-1.8
		c-0.9-1.2-1.3-3.4-1.3-6.8c0-3.6,0.4-6.1,1.2-7.6c0.8-1.5,2.3-2.3,4.4-2.3h19.7c2,0,3.6,0.7,4.6,2.2c1,1.5,1.5,3.9,1.5,7.3
		c0,3.8-0.5,6.2-1.5,7.3c-1,1.1-2.5,1.7-4.7,1.7H379.5z"/>
	
		<radialGradient id="SVGID_00000047739587670333092290000002321243816325093007_" cx="431.4963" cy="149.9462" r="234.8092" gradientUnits="userSpaceOnUse">
		<stop  offset="0" style="stop-color:#F4313A"/>
		<stop  offset="1" style="stop-color:#CE0045"/>
	</radialGradient>
	<path style="fill:url(#SVGID_00000047739587670333092290000002321243816325093007_);" d="M446.8,278.6c-5.4,0-10.4-0.7-14.9-2.1
		c-4.5-1.4-8.3-3.8-11.4-7.3c-1.1,1.8-2.6,3.3-4.4,4.4c-1.8,1.1-3.7,2-5.7,2.5c-2,0.6-3.9,0.9-5.9,1.1c-1.9,0.2-3.7,0.2-5.2,0.2
		c-2,0-3.6-0.7-4.6-2c-1-1.3-1.5-3.7-1.5-7c0-3.5,0.5-5.9,1.4-7.3c0.9-1.4,2.5-2.1,4.7-2.1h4.4c2.3,0,4.5-1,6.3-2.9
		c1.9-1.9,2.9-5.6,3.1-10.8v-3.1c0-10.2,2.9-18,8.7-23.5c5.8-5.4,14.1-8.2,25-8.2c10.3,0,18.5,2.9,24.7,8.6c6.1,5.8,9.2,14.4,9.2,26
		c0,0.7,0,1.4-0.1,2.1c-0.1,0.7-0.1,1.3-0.1,1.9c0.2,3.4,1.2,5.8,2.9,7.4c1.7,1.6,3.9,2.4,6.6,2.4h4.4c2,0,3.6,0.7,4.6,2.1
		c1,1.4,1.5,3.8,1.5,7c0,6.2-2,9.3-6.1,9.3c-1.8,0-3.7-0.1-5.7-0.2c-1.9-0.2-3.8-0.5-5.7-1.1c-1.8-0.6-3.6-1.5-5.2-2.7
		c-1.6-1.2-3.1-2.8-4.3-4.8c-3.1,3.7-6.9,6.2-11.6,7.7S452.3,278.6,446.8,278.6z M446.7,229.1c-8.4,0-12.5,5.1-12.5,15.4
		c0,5.8,1,9.9,3.1,12.1c2.1,2.3,5.2,3.4,9.4,3.4c4.3,0,7.4-1.1,9.5-3.4c2-2.3,3.1-6.3,3.1-12.1C459.3,234.2,455.1,229.1,446.7,229.1
		z"/>
	
		<radialGradient id="SVGID_00000044150982919501774420000016875547040584285589_" cx="431.4963" cy="149.9462" r="234.8092" gradientUnits="userSpaceOnUse">
		<stop  offset="0" style="stop-color:#F4313A"/>
		<stop  offset="1" style="stop-color:#CE0045"/>
	</radialGradient>
	<path style="fill:url(#SVGID_00000044150982919501774420000016875547040584285589_);" d="M494.1,277.5c-2,0-3.5-0.6-4.4-1.8
		c-0.9-1.2-1.3-3.4-1.3-6.8c0-3.6,0.4-6.1,1.2-7.6c0.8-1.5,2.3-2.3,4.4-2.3h19.7c2,0,3.6,0.7,4.6,2.2c1,1.5,1.5,3.9,1.5,7.3
		c0,3.8-0.5,6.2-1.5,7.3c-1,1.1-2.5,1.7-4.7,1.7H494.1z"/>
	
		<radialGradient id="SVGID_00000101804331599104984890000012712484835030848951_" cx="431.4963" cy="149.9462" r="234.8092" gradientUnits="userSpaceOnUse">
		<stop  offset="0" style="stop-color:#F4313A"/>
		<stop  offset="1" style="stop-color:#CE0045"/>
	</radialGradient>
	<path style="fill:url(#SVGID_00000101804331599104984890000012712484835030848951_);" d="M513.8,277.5c-2,0-3.6-0.4-4.6-1.1
		c-1-0.7-1.5-2.1-1.5-4.3c0-1.2,0.1-2.6,0.4-4.1c0.3-1.5,0.6-3,1.1-4.3c0.5-1.3,1.1-2.4,1.8-3.4c0.8-0.9,1.7-1.4,2.8-1.4h5.3
		c2.5,0,4.4-0.6,5.6-1.8c1.2-1.2,1.8-3.3,1.8-6.3v-75.8c0-1,0.5-1.5,1.5-1.5h18.6c1,0,1.5,0.5,1.5,1.5v83.1c0,6.6-1.4,11.5-4.1,14.6
		c-2.8,3.1-7.3,4.7-13.8,4.7H513.8z"/>
	
		<radialGradient id="SVGID_00000067238072213761170370000006119174400683954077_" cx="431.4963" cy="149.9462" r="234.8092" gradientUnits="userSpaceOnUse">
		<stop  offset="0" style="stop-color:#F4313A"/>
		<stop  offset="1" style="stop-color:#CE0045"/>
	</radialGradient>
	<path style="fill:url(#SVGID_00000067238072213761170370000006119174400683954077_);" d="M587.9,276c0,1-0.5,1.5-1.5,1.5H568
		c-1,0-1.5-0.5-1.5-1.5V175.1c0-1,0.5-1.5,1.5-1.5h18.4c1,0,1.5,0.5,1.5,1.5V276z"/>
	
		<radialGradient id="SVGID_00000029767437939929171520000009490616766877559722_" cx="431.4963" cy="149.9462" r="234.8092" gradientUnits="userSpaceOnUse">
		<stop  offset="0" style="stop-color:#F4313A"/>
		<stop  offset="1" style="stop-color:#CE0045"/>
	</radialGradient>
	<path style="fill:url(#SVGID_00000029767437939929171520000009490616766877559722_);" d="M685.1,210.6V204c0-1,0.5-1.5,1.5-1.5
		h18.6c1,0,1.5,0.5,1.5,1.5v46.9c0,3.1,0.6,5.2,1.8,6.3c1.2,1.2,3,1.8,5.6,1.8h4.7c4.1,0,6.1,3.1,6.1,9.3c0,3.6-0.5,6-1.5,7.3
		c-1,1.3-2.5,1.9-4.7,1.9H703c-5,0-8.9-0.8-11.7-2.4c-2.8-1.6-4.7-4.6-5.6-8.9c-2.2,1.8-4.8,3.2-7.8,4.1c-3,0.9-6.1,1.4-9.3,1.4
		c-4,0-7.8-0.6-11.4-1.7c-3.6-1.1-6.8-2.9-9.6-5.2c-2.8-2.3-4.9-5.4-6.5-9.2c-1.6-3.8-2.4-8.4-2.4-13.8c0-6.1,0.9-11.2,2.7-15.2
		c1.8-4,4.1-7.2,7-9.6c2.9-2.4,6.2-4.1,9.9-5c3.7-1,7.5-1.5,11.4-1.5H685.1z M654.1,191.6c-1,0-1.5-0.5-1.5-1.5v-15
		c0-1,0.5-1.5,1.5-1.5h15.3c1,0,1.5,0.5,1.5,1.5v15c0,1-0.5,1.5-1.5,1.5H654.1z M672.5,253.2c3.8,0,6.9-1.1,9.2-3.3
		c2.3-2.2,3.4-5.6,3.4-10.3v-10.5h-12.2c-3.8,0-6.9,0.9-9.3,2.8c-2.3,1.8-3.5,5.2-3.5,10.1c0,4.2,1.2,7.1,3.5,8.8
		S668.9,253.2,672.5,253.2z M677.6,191.6c-1,0-1.5-0.5-1.5-1.5v-15c0-1,0.5-1.5,1.5-1.5H693c1,0,1.5,0.5,1.5,1.5v15
		c0,1-0.5,1.5-1.5,1.5H677.6z"/>
	
		<radialGradient id="SVGID_00000055680158662841800930000017905363355944411029_" cx="431.4963" cy="149.9462" r="234.8092" gradientUnits="userSpaceOnUse">
		<stop  offset="0" style="stop-color:#F4313A"/>
		<stop  offset="1" style="stop-color:#CE0045"/>
	</radialGradient>
	<path style="fill:url(#SVGID_00000055680158662841800930000017905363355944411029_);" d="M755.7,212.1c5.3,0.2,10,0.8,14,1.7
		c4,0.9,7.4,2.5,10.2,4.8c2.8,2.3,4.8,5.4,6.2,9.2c1.4,3.9,2.1,8.7,2.1,14.6v9c0,5-0.5,9.1-1.5,12.5c-1,3.4-2.4,6-4.3,8
		c-1.9,2-4.3,3.4-7.2,4.3c-2.9,0.9-6.3,1.3-10.2,1.3h-44.9c-2,0-3.6-0.7-4.6-2.1c-1-1.4-1.5-4-1.5-7.6c0-3.5,0.5-5.8,1.5-7
		c1-1.2,2.5-1.8,4.7-1.8h34.2c2.4,0,4.4-0.2,6-0.5c1.5-0.3,2.7-0.8,3.5-1.6c0.8-0.8,1.4-1.8,1.6-3.1c0.3-1.3,0.4-3,0.4-5v-7
		c0-4.1-1.1-7-3.3-8.9c-2.2-1.8-5.7-2.8-10.5-2.8h-22.9c-1,0-1.5-0.5-1.5-1.5v-12.4c0-0.7,0.4-1.5,1.2-2.3c0.8-0.9,1.5-1.6,2.1-2.4
		l32.4-38.3c0.6-0.7,1.3-0.9,2-0.5l12.7,10.7c0.8,0.6,1,1.3,0.6,2.1L755.7,212.1z"/>
	
		<radialGradient id="SVGID_00000155125297548051740310000010273762705931622049_" cx="431.4963" cy="149.9462" r="234.8092" gradientUnits="userSpaceOnUse">
		<stop  offset="0" style="stop-color:#F4313A"/>
		<stop  offset="1" style="stop-color:#CE0045"/>
	</radialGradient>
	<path style="fill:url(#SVGID_00000155125297548051740310000010273762705931622049_);" d="M812.5,214.7c0-1,0.5-1.5,1.5-1.5h18.6
		c1,0,1.5,0.5,1.5,1.5v36.1c0.2,2.5,1.3,4.6,3.3,6c2,1.5,4.8,2.2,8.3,2.2h3.4c2,0,3.6,0.7,4.6,2.1c1,1.4,1.5,3.8,1.5,7
		c0,6.2-2,9.3-6.1,9.3c-3.4,0-6.3-0.3-8.7-1c-2.4-0.7-4.5-2.1-6.3-4.2v2.4c0,11.6-2.2,20.2-6.7,25.7c-4.5,5.6-12.1,8.3-22.9,8.3h-7
		c-1,0-1.5-0.5-1.5-1.5v-15.4c0-1,0.5-1.5,1.5-1.5h3.4c2.8,0,4.9-0.4,6.4-1.3c1.5-0.9,2.7-2.1,3.4-3.8c0.8-1.7,1.2-3.7,1.5-6.2
		c0.2-2.4,0.3-5.2,0.3-8.4V214.7z"/>
	
		<radialGradient id="SVGID_00000021833491606827143020000010536248699612290447_" cx="431.4963" cy="149.9462" r="234.8092" gradientUnits="userSpaceOnUse">
		<stop  offset="0" style="stop-color:#F4313A"/>
		<stop  offset="1" style="stop-color:#CE0045"/>
	</radialGradient>
	<path style="fill:url(#SVGID_00000021833491606827143020000010536248699612290447_);" d="M901.6,277.5c-4,0-7.2-0.7-9.8-2.2
		c-2.5-1.5-4.5-3.4-5.8-5.9c-1.4,3.3-3.6,5.4-6.4,6.5s-6.9,1.6-12.1,1.6h-18.3c-2,0-3.6-0.6-4.6-1.8c-1-1.2-1.5-3.4-1.5-6.8
		c0-3.6,0.5-6.1,1.5-7.6c1-1.5,2.5-2.3,4.7-2.3h10.2c3,0,4.8-0.7,5.7-2.2c0.8-1.5,1.2-4.2,1.2-8.2v-22.9c0-1,0.5-1.5,1.5-1.5h18.6
		c1,0,1.5,0.5,1.5,1.5v25.1c0,3.3,1,5.5,3.1,6.6c2,1.1,4.3,1.7,6.7,1.7c1.9,0,3.5-0.2,4.7-0.6c1.2-0.4,2-1,2.5-1.8
		c0.5-0.8,0.8-1.9,1-3.3c0.2-1.4,0.2-3.1,0.2-5.1v-22.5c0-1,0.5-1.5,1.5-1.5h18.6c1,0,1.5,0.5,1.5,1.5v24.9c0,3.5,1,5.7,3.1,6.8
		c2.1,1.1,4.5,1.6,7.1,1.6c1.9,0,3.4-0.2,4.4-0.6c1-0.4,1.8-1,2.3-1.9c0.5-0.9,0.8-2,0.9-3.4c0.1-1.4,0.2-3.1,0.2-5.1v-33.3
		c0-1,0.5-1.5,1.5-1.5h18.6c1,0,1.5,0.5,1.5,1.5v43.5c0,6.6-1.4,11.5-4.1,14.6c-2.8,3.1-7.3,4.7-13.8,4.7h-8.4c-4,0-7.2-0.7-9.7-2.2
		c-2.5-1.5-4.4-3.4-5.7-5.9c-1.4,3.2-3.6,5.3-6.5,6.4c-2.9,1.1-6.9,1.7-11.8,1.7H901.6z"/>
	
		<radialGradient id="SVGID_00000138538000370970430900000003209876063774894234_" cx="431.4963" cy="149.9462" r="234.8092" gradientUnits="userSpaceOnUse">
		<stop  offset="0" style="stop-color:#F4313A"/>
		<stop  offset="1" style="stop-color:#CE0045"/>
	</radialGradient>
	<path style="fill:url(#SVGID_00000138538000370970430900000003209876063774894234_);" d="M875.8,197.7c-1,0-1.5-0.5-1.5-1.5v-15
		c0-1,0.5-1.5,1.5-1.5h15.3c1,0,1.5,0.5,1.5,1.5v15c0,1-0.5,1.5-1.5,1.5H875.8z"/>
	
		<radialGradient id="SVGID_00000052093532615158667550000017739134380069992595_" cx="895.3878" cy="166.8687" r="9.0904" gradientUnits="userSpaceOnUse">
		<stop  offset="0" style="stop-color:#F4313A"/>
		<stop  offset="1" style="stop-color:#CE0045"/>
	</radialGradient>
	<path style="fill:url(#SVGID_00000052093532615158667550000017739134380069992595_);" d="M887.7,175.9c-1,0-1.5-0.5-1.5-1.5v-15
		c0-1,0.5-1.5,1.5-1.5H903c1,0,1.5,0.5,1.5,1.5v15c0,1-0.5,1.5-1.5,1.5H887.7z"/>
	
		<radialGradient id="SVGID_00000168075914578892658510000001843620180089756589_" cx="431.4963" cy="149.9462" r="234.8092" gradientUnits="userSpaceOnUse">
		<stop  offset="0" style="stop-color:#F4313A"/>
		<stop  offset="1" style="stop-color:#CE0045"/>
	</radialGradient>
	<path style="fill:url(#SVGID_00000168075914578892658510000001843620180089756589_);" d="M899.4,197.7c-1,0-1.5-0.5-1.5-1.5v-15
		c0-1,0.5-1.5,1.5-1.5h15.4c1,0,1.5,0.5,1.5,1.5v15c0,1-0.5,1.5-1.5,1.5H899.4z"/>
	<g>
		<path class="st19" d="M32.4,326.9v23c0,0.4,0.1,0.7,0.4,1c0.3,0.3,0.6,0.4,1.1,0.4h0.5v2.7h-1.7c-0.8,0-1.5-0.3-2.1-0.8
			c-0.9-0.7-1.3-1.7-1.3-2.8v-23.6H32.4z"/>
		<path class="st19" d="M44.1,336.6v13.8c0,0.3,0,0.6-0.1,0.9h2v2.7h-1.5l-1.1-1.3h-0.1c-0.7,0.9-1.6,1.3-2.7,1.3h-6.6v-2.7h5.4
			c0.4,0,0.7-0.1,1-0.4c0.3-0.3,0.5-0.6,0.5-1.1v-13.3H44.1z M37.7,358c0.5,0,0.9,0.2,1.3,0.5c0.4,0.4,0.5,0.8,0.5,1.3
			c0,0.5-0.2,1-0.5,1.3c-0.4,0.4-0.8,0.5-1.3,0.5c-0.5,0-0.9-0.2-1.3-0.5c-0.4-0.4-0.5-0.8-0.5-1.3c0-0.5,0.2-0.9,0.5-1.3
			C36.7,358.2,37.2,358,37.7,358z M42.2,358c0.5,0,1,0.2,1.3,0.5c0.4,0.4,0.5,0.8,0.5,1.3c0,0.5-0.2,1-0.5,1.3
			c-0.4,0.4-0.8,0.5-1.3,0.5c-0.5,0-0.9-0.2-1.3-0.5c-0.4-0.4-0.5-0.8-0.5-1.3c0-0.5,0.2-0.9,0.5-1.3C41.3,358.2,41.7,358,42.2,358z
			"/>
		<path class="st19" d="M55.8,336.6v13.8c0,0.3,0,0.6-0.1,0.9h2v2.7h-1.5l-1.1-1.3H55c-0.7,0.9-1.6,1.3-2.7,1.3h-6.6v-2.7h5.4
			c0.4,0,0.7-0.1,1-0.4c0.3-0.3,0.5-0.6,0.5-1.1v-13.3H55.8z M53.9,358c0.5,0,1,0.2,1.3,0.5c0.4,0.4,0.5,0.8,0.5,1.3
			c0,0.5-0.2,1-0.5,1.3c-0.4,0.4-0.8,0.5-1.3,0.5c-0.5,0-0.9-0.2-1.3-0.5c-0.4-0.4-0.5-0.8-0.5-1.3c0-0.5,0.2-0.9,0.5-1.3
			C53,358.2,53.4,358,53.9,358z"/>
		<path class="st19" d="M67.5,336.6v13.8c0,0.3,0,0.6-0.1,0.9h2v2.7h-1.5l-1.1-1.3h-0.1c-0.7,0.9-1.6,1.3-2.7,1.3h-6.6v-2.7h5.4
			c0.4,0,0.7-0.1,1-0.4c0.3-0.3,0.5-0.6,0.5-1.1v-13.3H67.5z M61,358c0.5,0,0.9,0.2,1.3,0.5c0.4,0.4,0.5,0.8,0.5,1.3
			c0,0.5-0.2,1-0.5,1.3c-0.4,0.4-0.8,0.5-1.3,0.5c-0.5,0-0.9-0.2-1.3-0.5c-0.4-0.4-0.5-0.8-0.5-1.3c0-0.5,0.2-0.9,0.5-1.3
			C60.1,358.2,60.5,358,61,358z M65.6,358c0.5,0,1,0.2,1.3,0.5c0.4,0.4,0.5,0.8,0.5,1.3c0,0.5-0.2,1-0.5,1.3
			c-0.4,0.4-0.8,0.5-1.3,0.5c-0.5,0-0.9-0.2-1.3-0.5c-0.4-0.4-0.5-0.8-0.5-1.3c0-0.5,0.2-0.9,0.5-1.3C64.7,358.2,65.1,358,65.6,358z
			"/>
		<path class="st19" d="M79.2,326.9v23.6c0,1-0.3,1.8-1,2.5c-0.7,0.7-1.5,1.1-2.5,1.1h-6.6v-2.7h5.4c0.5,0,0.8-0.2,1.1-0.5
			c0.2-0.3,0.3-0.6,0.3-0.9v-23H79.2z"/>
		<path class="st19" d="M95.6,337.3c1.8-0.7,3.8-1.1,6-1.1c3.1,0,5.5,1,7.2,2.9c1.4,1.7,2.1,3.9,2.1,6.6v4.8c0,1-0.3,1.8-1,2.5
			c-0.7,0.7-1.5,1.1-2.4,1.1h-7.4c-2.1,0-3.7,0.6-4.8,1.8c-0.8,0.9-1.2,2-1.2,3.6c0.1,4.1,2.6,6.2,7.5,6.2c1.6,0,3.2-0.2,5-0.6v1.1
			l-1.2,1.5c-1.4,0.5-2.9,0.7-4.4,0.8c-2.3,0-4.2-0.5-5.9-1.4c-2.8-1.5-4.2-4-4.2-7.5c0.1-2.3,0.7-4.1,1.9-5.4
			c1.7-1.8,4.3-2.7,7.9-2.7h5.7c0.9,0,1.4-0.5,1.4-1.4v-4.4c0-2-0.5-3.6-1.4-4.7c-1.1-1.3-2.8-1.9-5.1-1.9c-1.5,0-3.3,0.3-5.5,0.8
			V337.3z M101.1,358c0.5,0,0.9,0.2,1.3,0.5c0.4,0.4,0.5,0.8,0.5,1.3c0,0.5-0.2,1-0.5,1.3c-0.4,0.4-0.8,0.5-1.3,0.5
			c-0.5,0-1-0.2-1.3-0.5c-0.4-0.4-0.5-0.8-0.5-1.3c0-0.5,0.2-0.9,0.5-1.3C100.1,358.2,100.6,358,101.1,358z"/>
		<path class="st19" d="M123.8,336.6v17.1c0,2.8-0.8,5-2.4,6.6c-1.2,1.3-2.9,2.1-5,2.5c-0.8,0.2-1.7,0.2-2.7,0.2c-0.6,0-1.2,0-1.7,0
			l-1.3-1.6v-1.2c0.7,0.1,1.5,0.2,2.4,0.2c5,0,7.4-2.3,7.4-6.8v-17H123.8z"/>
		<path class="st19" d="M132.3,326.9v23c0,0.4,0.1,0.7,0.4,1c0.3,0.3,0.6,0.4,1.1,0.4h0.5v2.7h-1.7c-0.8,0-1.5-0.3-2.1-0.8
			c-0.9-0.7-1.3-1.7-1.3-2.8v-23.6H132.3z"/>
		<path class="st19" d="M139,337.3c2.3-0.7,4.5-1.1,6.5-1.1c3.1,0,5.5,1,7.2,2.9c1.4,1.7,2.1,3.9,2.1,6.6v4.8c0,0.9-0.3,1.6-0.8,2.3
			c-0.7,0.9-1.5,1.3-2.6,1.3H134v-2.7h16.2c1,0,1.4-0.5,1.4-1.4v-4.4c0-2-0.5-3.5-1.6-4.7c-1.1-1.3-2.8-1.9-5-1.9
			c-1.3,0-3.3,0.3-6.1,0.8V337.3z M146,328.3c0.5,0,1,0.2,1.3,0.5c0.4,0.4,0.5,0.8,0.5,1.3c0,0.5-0.2,1-0.5,1.3
			c-0.4,0.4-0.8,0.5-1.3,0.5c-0.5,0-0.9-0.2-1.3-0.5c-0.4-0.4-0.5-0.8-0.5-1.3c0-0.5,0.2-0.9,0.5-1.3
			C145,328.5,145.5,328.3,146,328.3z"/>
		<path class="st19" d="M171.8,353.7c-1.3,0.5-2.7,0.7-4.1,0.7c-2.7,0-4.9-1-6.5-2.9c-1.4-1.7-2.1-3.9-2.1-6.5
			c0-2.7,0.7-4.8,2.2-6.4c1.6-1.7,3.7-2.5,6.4-2.5c2,0,3.7,0.5,5,1.6c1.5,1.2,2.3,3,2.3,5.3v10.7c0,3.2-1.1,5.7-3.2,7.3
			c-1.1,0.8-2.3,1.4-3.8,1.7c-1,0.2-2,0.3-3.1,0.3c-0.6,0-1.2,0-1.7,0l-1.3-1.6v-1.2c0.8,0.1,1.6,0.2,2.4,0.2
			C169.3,360.5,171.8,358.2,171.8,353.7z M171.8,343.1c0-1.6-0.6-2.7-1.7-3.5c-0.6-0.4-1.4-0.6-2.4-0.6c-1.7,0-3,0.6-4,1.7
			c-1,1.1-1.5,2.7-1.5,4.7c0,1.9,0.6,3.4,1.7,4.6c1,1,2.3,1.6,3.9,1.6c1.4,0,2.7-0.2,3.9-0.7V343.1z"/>
		<path class="st19" d="M211.1,326.9v24.5h1.9v2.7h-1.9c-0.1,2.9-1,5.1-2.8,6.7c-1.8,1.6-4.2,2.4-7.3,2.4h-4.2c-3,0-5.4-0.8-7.2-2.3
			c-1.9-1.6-2.9-4-2.9-7.1v-7.9l1.6-1.3h1.6v9.2c0,2.5,0.7,4.3,2,5.3c1.3,1,3.6,1.5,7,1.5c3.2,0,5.4-0.4,6.7-1.3
			c1.5-1,2.3-2.9,2.3-5.5v-26.7H211.1z"/>
		<path class="st19" d="M217.8,337.3c2.3-0.7,4.5-1.1,6.5-1.1c3.1,0,5.5,1,7.2,2.9c1.4,1.7,2.1,3.9,2.1,6.6v4.8
			c0,0.9-0.3,1.6-0.8,2.3c-0.7,0.9-1.5,1.3-2.6,1.3h-17.4v-2.7h16.2c1,0,1.4-0.5,1.4-1.4v-4.4c0-2-0.5-3.5-1.6-4.7
			c-1.1-1.3-2.8-1.9-5-1.9c-1.3,0-3.3,0.3-6.1,0.8V337.3z M224.7,328.3c0.5,0,1,0.2,1.3,0.5c0.4,0.4,0.5,0.8,0.5,1.3
			c0,0.5-0.2,1-0.5,1.3c-0.4,0.4-0.8,0.5-1.3,0.5c-0.5,0-0.9-0.2-1.3-0.5c-0.4-0.4-0.5-0.8-0.5-1.3c0-0.5,0.2-0.9,0.5-1.3
			C223.8,328.5,224.2,328.3,224.7,328.3z"/>
		<path class="st19" d="M241.6,326.9v26.8l-1.6,1.3h-1.6v-28.1H241.6z"/>
		<path class="st19" d="M249.5,336.4c0.9-0.2,1.9-0.2,2.9-0.2c2.8,0,5.1,0.8,6.8,2.5c1.5,1.6,2.3,3.6,2.3,6v5.8c0,1-0.3,1.8-0.9,2.5
			c-0.7,0.7-1.5,1.1-2.4,1.1h-12.5v-2.7h11.2c0.9,0,1.4-0.5,1.4-1.4v-4.8c0-1.8-0.5-3.3-1.6-4.5c-1.2-1.2-3-1.8-5.4-1.9
			c-0.7,0-1.3,0.1-1.8,0.2V336.4z"/>
		<path class="st19" d="M304.4,336.6v13.8c0,0.9-0.3,1.7-0.8,2.4c-0.7,0.8-1.6,1.3-2.6,1.3h-21.7c-1.5,0-2.7-0.5-3.8-1.4
			c-1.4-1.2-2.2-2.8-2.2-4.8v-7.1l1.6-1.3h1.6v8.5c0,1,0.4,1.8,1.1,2.5c0.7,0.7,1.5,1.1,2.6,1.1h19.5c1,0,1.4-0.5,1.4-1.4v-13.3
			H304.4z M288.9,358c0.5,0,0.9,0.2,1.3,0.5c0.4,0.4,0.5,0.8,0.5,1.3c0,0.5-0.2,1-0.5,1.3c-0.4,0.4-0.8,0.5-1.3,0.5
			c-0.5,0-1-0.2-1.3-0.5c-0.4-0.4-0.5-0.8-0.5-1.3c0-0.5,0.2-0.9,0.5-1.3C288,358.2,288.4,358,288.9,358z"/>
		<path class="st19" d="M312.9,326.9v23c0,0.4,0.1,0.7,0.4,1c0.3,0.3,0.6,0.4,1.1,0.4h0.5v2.7h-1.7c-0.8,0-1.5-0.3-2.1-0.8
			c-0.9-0.7-1.3-1.7-1.3-2.8v-23.6H312.9z"/>
		<path class="st19" d="M331.7,326.4v3l-9.5,5.7c3.9,1.1,7.1,3,9.3,5.9c2.1,2.6,3.1,5.7,3.1,9.1c0,1.2-0.3,2.2-0.9,3
			c-0.6,0.8-1.5,1.1-2.5,1.1h-16.7v-2.7H330c1,0,1.5-0.5,1.5-1.5c-0.1-2.6-0.9-4.9-2.3-6.9c-2-2.9-5.3-4.7-9.7-5.3
			c-0.2,0-0.2-0.1-0.2-0.3v-3.8L331.7,326.4z"/>
		<path class="st19" d="M347.6,336.6v14.8h1.9v2.7h-1.9c-0.1,3.2-1.2,5.5-3.4,7.1c-1.7,1.3-4,1.9-6.8,1.9c-0.4,0-1,0-1.6,0l-1.3-1.6
			v-1.2c0.7,0.1,1.5,0.2,2.4,0.2c5,0,7.4-2.3,7.4-6.8v-17H347.6z"/>
		<path class="st19" d="M359.3,326.9v23.6c0,1-0.3,1.8-1,2.5c-0.7,0.7-1.5,1.1-2.5,1.1h-6.6v-2.7h5.4c0.5,0,0.8-0.2,1.1-0.5
			c0.2-0.3,0.3-0.6,0.3-0.9v-23H359.3z"/>
		<path class="st19" d="M367.7,326.9v26.8l-1.6,1.3h-1.6v-28.1H367.7z"/>
		<path class="st19" d="M404.3,326.9v24.5h1.9v2.7h-1.9c-0.1,2.9-1,5.1-2.8,6.7c-1.8,1.6-4.2,2.4-7.3,2.4H390c-3,0-5.4-0.8-7.2-2.3
			c-1.9-1.6-2.9-4-2.9-7.1v-7.9l1.6-1.3h1.6v9.2c0,2.5,0.7,4.3,2,5.3c1.3,1,3.6,1.5,7,1.5c3.2,0,5.4-0.4,6.7-1.3
			c1.5-1,2.3-2.9,2.3-5.5v-26.7H404.3z"/>
		<path class="st19" d="M414.2,351.4c-1.6-1.7-2.4-3.9-2.4-6.4c0-2.5,0.7-4.5,2-6c1.5-1.8,3.6-2.7,6.1-2.7c2,0,3.8,0.6,5.2,1.8
			c2,1.6,3,4,3,6.9c0,2.5-0.8,4.7-2.4,6.4h3.3v2.7h-5.5h-0.4c-1.5,0-2.5-0.1-3.1-0.3h-0.2c-0.6,0.2-1.7,0.3-3.1,0.3h-0.5h-10.3v-2.7
			H414.2z M419.9,338.9c-1.5,0-2.7,0.5-3.6,1.6c-0.9,1.1-1.3,2.6-1.3,4.5c0,1.7,0.5,3.2,1.4,4.4c0.9,1.2,2.1,1.8,3.5,1.9
			c1.4-0.1,2.6-0.7,3.5-1.9c0.9-1.2,1.4-2.7,1.4-4.4c0-1.9-0.4-3.4-1.3-4.5C422.7,339.5,421.5,338.9,419.9,338.9z M417.8,328.3
			c0.5,0,0.9,0.2,1.3,0.5c0.4,0.4,0.5,0.8,0.5,1.3c0,0.5-0.2,1-0.5,1.3c-0.4,0.4-0.8,0.5-1.3,0.5c-0.5,0-0.9-0.2-1.3-0.5
			c-0.4-0.4-0.5-0.8-0.5-1.3c0-0.5,0.2-0.9,0.5-1.3C416.9,328.5,417.3,328.3,417.8,328.3z M422.4,328.3c0.5,0,1,0.2,1.3,0.5
			c0.4,0.4,0.5,0.8,0.5,1.3c0,0.5-0.2,1-0.5,1.3c-0.4,0.4-0.8,0.5-1.3,0.5c-0.5,0-0.9-0.2-1.3-0.5c-0.4-0.4-0.5-0.8-0.5-1.3
			c0-0.5,0.2-0.9,0.5-1.3C421.5,328.5,421.9,328.3,422.4,328.3z"/>
		<path class="st19" d="M438.8,336.6v13.8c0,0.9-0.3,1.7-0.9,2.4c-0.7,0.8-1.5,1.2-2.5,1.2h-6.6v-2.7h5.4c0.4,0,0.8-0.2,1.1-0.5
			c0.3-0.3,0.4-0.6,0.4-1v-13.3H438.8z M437.2,328.3c0.5,0,1,0.2,1.3,0.5c0.4,0.4,0.5,0.8,0.5,1.3c0,0.5-0.2,1-0.5,1.3
			c-0.4,0.4-0.8,0.5-1.3,0.5c-0.5,0-0.9-0.2-1.3-0.5c-0.4-0.4-0.5-0.8-0.5-1.3c0-0.5,0.2-0.9,0.5-1.3
			C436.2,328.5,436.7,328.3,437.2,328.3z"/>
		<path class="st19" d="M456.3,353.7c-1.3,0.5-2.7,0.7-4.1,0.7c-2.7,0-4.9-1-6.5-2.9c-1.4-1.7-2.1-3.9-2.1-6.5
			c0-2.7,0.7-4.8,2.2-6.4c1.6-1.7,3.7-2.5,6.4-2.5c2,0,3.7,0.5,5,1.6c1.5,1.2,2.3,3,2.3,5.3v10.7c0,3.2-1.1,5.7-3.2,7.3
			c-1.1,0.8-2.3,1.4-3.8,1.7c-1,0.2-2,0.3-3.1,0.3c-0.6,0-1.2,0-1.7,0l-1.3-1.6v-1.2c0.8,0.1,1.6,0.2,2.4,0.2
			C453.8,360.5,456.2,358.2,456.3,353.7z M456.3,343.1c0-1.6-0.6-2.7-1.7-3.5c-0.6-0.4-1.4-0.6-2.4-0.6c-1.7,0-3,0.6-4,1.7
			c-1,1.1-1.5,2.7-1.5,4.7c0,1.9,0.6,3.4,1.7,4.6c1,1,2.3,1.6,3.9,1.6c1.4,0,2.7-0.2,3.9-0.7V343.1z"/>
		<path class="st19" d="M495.6,326.9v26.8c0,3-0.9,5.4-2.8,7c-1.8,1.6-4.2,2.4-7.3,2.4h-4.2c-3,0-5.4-0.8-7.2-2.3
			c-1.9-1.6-2.9-4-2.9-7.1v-7.9l1.6-1.3h1.6v9.2c0,2.5,0.7,4.3,2,5.3c1.3,1,3.6,1.5,7,1.5c3.2,0,5.4-0.4,6.7-1.3
			c1.5-1,2.3-2.9,2.3-5.5v-26.7H495.6z"/>
		<path class="st19" d="M504,326.9v26.8l-1.6,1.3h-1.6v-28.1H504z"/>
		<path class="st19" d="M517.3,354.1c-2.9,0-5.1-1-6.6-2.9c-1.3-1.6-1.9-3.6-1.9-6.1c0-2.9,0.9-5.1,2.6-6.7c1.5-1.5,3.6-2.2,6.1-2.2
			c2,0,3.6,0.5,4.9,1.5c1.6,1.2,2.4,3,2.4,5.4v8.3h1.2v2.7h-1.2c-0.1,2.7-0.9,4.7-2.4,6.3c-1.1,1.2-2.6,2-4.4,2.4
			c-1,0.3-2.1,0.4-3.3,0.4c-0.6,0-1.2,0-1.7,0l-1.3-1.6v-1.2c0.8,0.1,1.6,0.2,2.4,0.2c4.8,0,7.3-2.1,7.4-6.4H517.3z M521.5,343.1
			c0-1.3-0.4-2.3-1.1-3.1c-0.7-0.7-1.7-1.1-2.9-1.1c-1.7,0-3,0.6-4,1.7c-1,1.1-1.5,2.7-1.5,4.7c0,1.8,0.5,3.2,1.5,4.4
			c1,1.1,2.3,1.7,3.8,1.7h4.2V343.1z"/>
		<path class="st19" d="M532.5,343.1c0-2.6,0.9-4.5,2.7-5.7c1.2-0.8,2.8-1.2,4.7-1.2c2.4,0,4.4,0.8,6,2.5c1.6,1.6,2.4,3.9,2.4,6.9
			c0,2.8-0.8,5.1-2.4,7c-1.5,1.8-3.4,2.7-5.8,2.7c-2.2,0-3.9-0.8-5.3-2.5c-0.7,0.9-1.6,1.3-2.7,1.3h-6.5v-2.7h5.4
			c0.4,0,0.7-0.1,1-0.4c0.3-0.3,0.4-0.6,0.4-1V343.1z M535.7,350.5c1.3,1.3,2.8,2,4.4,2c1.5,0,2.7-0.6,3.7-1.9
			c0.9-1.3,1.4-2.9,1.4-4.9c0-2.2-0.6-4-1.7-5.3c-0.9-1.1-2.2-1.6-3.7-1.6c-1.2,0-2.1,0.3-2.8,1c-0.8,0.8-1.3,1.8-1.3,3.1V350.5z"/>
		<path class="st19" d="M572.8,326.9v23.6c0,0.9-0.3,1.6-0.8,2.3c-0.7,0.9-1.6,1.3-2.7,1.3h-16.6l-1.3-1.6v-1.1h10.2l-6.5-19.8h3.2
			l6.6,19.8h3.3c0.5,0,0.8-0.2,1.1-0.5c0.2-0.3,0.3-0.6,0.3-0.9v-23H572.8z"/>
		<path class="st19" d="M581.3,326.9v26.8l-1.6,1.3h-1.6v-28.1H581.3z"/>
		<path class="st19" d="M617.8,326.9v24.5h1.9v2.7h-1.9c-0.1,2.9-1,5.1-2.8,6.7c-1.8,1.6-4.2,2.4-7.3,2.4h-4.2c-3,0-5.4-0.8-7.2-2.3
			c-1.9-1.6-2.9-4-2.9-7.1v-7.9l1.6-1.3h1.6v9.2c0,2.5,0.7,4.3,2,5.3c1.3,1,3.6,1.5,7,1.5c3.2,0,5.4-0.4,6.7-1.3
			c1.5-1,2.3-2.9,2.3-5.5v-26.7H617.8z"/>
		<path class="st19" d="M629.5,336.6v13.8c0,0.9-0.3,1.7-0.9,2.4c-0.7,0.8-1.5,1.2-2.5,1.2h-6.6v-2.7h5.4c0.4,0,0.8-0.2,1.1-0.5
			c0.3-0.3,0.4-0.6,0.4-1v-13.3H629.5z M622.7,358c0.5,0,0.9,0.2,1.3,0.5c0.4,0.4,0.5,0.8,0.5,1.3c0,0.5-0.2,1-0.5,1.3
			c-0.4,0.4-0.8,0.5-1.3,0.5c-0.5,0-1-0.2-1.3-0.5c-0.4-0.4-0.5-0.8-0.5-1.3c0-0.5,0.2-0.9,0.5-1.3C621.7,358.2,622.2,358,622.7,358
			z M627.3,358c0.5,0,1,0.2,1.3,0.5c0.4,0.4,0.5,0.8,0.5,1.3c0,0.5-0.2,1-0.5,1.3c-0.4,0.4-0.8,0.5-1.3,0.5c-0.5,0-0.9-0.2-1.3-0.5
			c-0.4-0.4-0.5-0.8-0.5-1.3c0-0.5,0.2-0.9,0.5-1.3C626.3,358.2,626.8,358,627.3,358z"/>
		<path class="st19" d="M642.8,354.1c-2.9,0-5.1-1-6.6-2.9c-1.3-1.6-1.9-3.6-1.9-6.1c0-2.9,0.9-5.1,2.6-6.7c1.5-1.5,3.6-2.2,6.1-2.2
			c2,0,3.6,0.5,4.9,1.5c1.6,1.2,2.4,3,2.4,5.4v8.3h1.2v2.7h-1.2c-0.1,2.7-0.9,4.7-2.4,6.3c-1.1,1.2-2.6,2-4.4,2.4
			c-1,0.3-2.1,0.4-3.3,0.4c-0.6,0-1.2,0-1.7,0l-1.3-1.6v-1.2c0.8,0.1,1.6,0.2,2.4,0.2c4.8,0,7.3-2.1,7.4-6.4H642.8z M647,343.1
			c0-1.3-0.4-2.3-1.1-3.1c-0.7-0.7-1.7-1.1-2.9-1.1c-1.7,0-3,0.6-4,1.7c-1,1.1-1.5,2.7-1.5,4.7c0,1.8,0.5,3.2,1.5,4.4
			c1,1.1,2.3,1.7,3.8,1.7h4.2V343.1z"/>
		<path class="st19" d="M656.2,337.3c2.3-0.7,4.5-1.1,6.5-1.1c3.1,0,5.5,1,7.2,2.9c1.4,1.7,2.1,3.9,2.1,6.6v4.8c0,0.3,0,0.6-0.1,0.9
			h1.3v2.7h-0.8l-1.1-1.3h-0.1c-0.7,0.9-1.6,1.3-2.7,1.3h-17.4v-2.7h16.2c1,0,1.4-0.5,1.4-1.4v-4.4c0-2-0.5-3.5-1.6-4.7
			c-1.1-1.3-2.8-1.9-5-1.9c-1.3,0-3.3,0.3-6.1,0.8V337.3z"/>
		<path class="st19" d="M683,336.6v13.8c0,0.9-0.3,1.7-0.9,2.4c-0.7,0.8-1.5,1.2-2.5,1.2h-6.6v-2.7h5.4c0.4,0,0.8-0.2,1.1-0.5
			c0.3-0.3,0.4-0.6,0.4-1v-13.3H683z M676.9,328.3c0.5,0,1,0.2,1.3,0.5c0.4,0.4,0.5,0.8,0.5,1.3c0,0.5-0.2,1-0.5,1.3
			c-0.4,0.4-0.8,0.5-1.3,0.5c-0.5,0-0.9-0.2-1.3-0.5c-0.4-0.4-0.5-0.8-0.5-1.3c0-0.5,0.2-0.9,0.5-1.3
			C675.9,328.5,676.3,328.3,676.9,328.3z M681.5,328.3c0.5,0,0.9,0.2,1.3,0.5c0.4,0.4,0.5,0.8,0.5,1.3c0,0.5-0.2,1-0.5,1.3
			c-0.4,0.4-0.8,0.5-1.3,0.5c-0.5,0-1-0.2-1.3-0.5c-0.4-0.4-0.5-0.8-0.5-1.3c0-0.5,0.2-0.9,0.5-1.3
			C680.5,328.5,681,328.3,681.5,328.3z"/>
		<path class="st19" d="M700.8,353.7c-1.3,0.5-2.7,0.7-4.1,0.7c-2.7,0-4.9-1-6.5-2.9c-1.4-1.7-2.1-3.9-2.1-6.5
			c0-2.7,0.7-4.8,2.2-6.4c1.6-1.7,3.7-2.5,6.4-2.5c2,0,3.7,0.5,5,1.6c1.5,1.2,2.3,3,2.3,5.3v10.7c0,3.2-1.1,5.7-3.2,7.3
			c-1.1,0.8-2.3,1.4-3.8,1.7c-1,0.2-2,0.3-3.1,0.3c-0.6,0-1.2,0-1.7,0l-1.3-1.6v-1.2c0.8,0.1,1.6,0.2,2.4,0.2
			C698.3,360.5,700.8,358.2,700.8,353.7z M700.8,343.1c0-1.6-0.6-2.7-1.7-3.5c-0.6-0.4-1.4-0.6-2.4-0.6c-1.7,0-3,0.6-4,1.7
			c-1,1.1-1.5,2.7-1.5,4.7c0,1.9,0.6,3.4,1.7,4.6c1,1,2.3,1.6,3.9,1.6c1.4,0,2.7-0.2,3.9-0.7V343.1z"/>
		<path class="st19" d="M746.8,336.6v13.8c0,0.9-0.3,1.7-0.8,2.4c-0.7,0.8-1.6,1.3-2.6,1.3h-21.7c-1.5,0-2.7-0.5-3.8-1.4
			c-1.4-1.2-2.2-2.8-2.2-4.8v-7.1l1.6-1.3h1.6v8.5c0,1,0.4,1.8,1.1,2.5c0.7,0.7,1.5,1.1,2.6,1.1h19.5c1,0,1.4-0.5,1.4-1.4v-13.3
			H746.8z M729,335.6c0.5,0,0.9,0.2,1.3,0.5c0.4,0.4,0.5,0.8,0.5,1.3c0,0.5-0.2,0.9-0.5,1.3c-0.4,0.4-0.8,0.5-1.3,0.5
			c-0.5,0-1-0.2-1.3-0.5c-0.4-0.4-0.5-0.8-0.5-1.3c0-0.5,0.2-1,0.5-1.3C728,335.8,728.5,335.6,729,335.6z M733.6,335.6
			c0.5,0,1,0.2,1.3,0.5c0.4,0.4,0.5,0.8,0.5,1.3c0,0.5-0.2,0.9-0.5,1.3c-0.4,0.4-0.8,0.5-1.3,0.5c-0.5,0-0.9-0.2-1.3-0.5
			c-0.4-0.4-0.5-0.8-0.5-1.3c0-0.5,0.2-1,0.5-1.3C732.7,335.8,733.1,335.6,733.6,335.6z"/>
		<path class="st19" d="M755.3,326.9v23c0,0.4,0.1,0.7,0.4,1c0.3,0.3,0.6,0.4,1.1,0.4h0.5v2.7h-1.7c-0.8,0-1.5-0.3-2.1-0.8
			c-0.9-0.7-1.3-1.7-1.3-2.8v-23.6H755.3z"/>
		<path class="st19" d="M767,336.6v13.8c0,0.3,0,0.6-0.1,0.9h2v2.7h-1.5l-1.1-1.3h-0.1c-0.7,0.9-1.6,1.3-2.7,1.3h-6.6v-2.7h5.4
			c0.4,0,0.7-0.1,1-0.4c0.3-0.3,0.5-0.6,0.5-1.1v-13.3H767z M765.3,328.3c0.5,0,1,0.2,1.3,0.5c0.4,0.4,0.5,0.8,0.5,1.3
			c0,0.5-0.2,1-0.5,1.3c-0.4,0.4-0.8,0.5-1.3,0.5c-0.5,0-0.9-0.2-1.3-0.5c-0.4-0.4-0.5-0.8-0.5-1.3c0-0.5,0.2-0.9,0.5-1.3
			C764.4,328.5,764.8,328.3,765.3,328.3z"/>
		<path class="st19" d="M773.6,337.3c2.3-0.7,4.5-1.1,6.5-1.1c3.1,0,5.5,1,7.2,2.9c1.4,1.7,2.1,3.9,2.1,6.6v4.8c0,0.3,0,0.6-0.1,0.9
			h1.3v2.7h-0.8l-1.1-1.3h-0.1c-0.7,0.9-1.6,1.3-2.7,1.3h-17.4v-2.7h16.2c1,0,1.4-0.5,1.4-1.4v-4.4c0-2-0.5-3.5-1.6-4.7
			c-1.1-1.3-2.8-1.9-5-1.9c-1.3,0-3.3,0.3-6.1,0.8V337.3z"/>
		<path class="st19" d="M826.5,336.6v13.8c0,0.3,0,0.6-0.1,0.9h2v2.7h-1.5l-1.1-1.3h-0.1c-0.7,0.9-1.6,1.3-2.7,1.3h-7.5l-1.1-1.3
			h-0.1c-0.7,0.9-1.6,1.3-2.7,1.3h-7.5l-1.1-1.3h-0.1c-0.7,0.9-1.6,1.3-2.7,1.3h-10.1v-2.7h8.8c1,0,1.4-0.5,1.4-1.4v-9h3.2v9.5
			c0,0.3,0,0.6-0.1,0.9h6.7c1,0,1.4-0.5,1.4-1.4v-11.2h3.2v11.7c0,0.3,0,0.6-0.1,0.9h6.8c1,0,1.4-0.5,1.4-1.4v-13.3H826.5z
			 M811.3,328.3c0.5,0,0.9,0.2,1.3,0.5c0.4,0.4,0.5,0.8,0.5,1.3c0,0.5-0.2,1-0.5,1.3c-0.4,0.4-0.8,0.5-1.3,0.5c-0.5,0-1-0.2-1.3-0.5
			c-0.4-0.4-0.5-0.8-0.5-1.3c0-0.5,0.2-0.9,0.5-1.3C810.3,328.5,810.8,328.3,811.3,328.3z M813.6,324.6c0.5,0,0.9,0.2,1.3,0.5
			c0.3,0.4,0.5,0.8,0.5,1.3c0,0.5-0.2,0.9-0.5,1.3c-0.3,0.4-0.8,0.5-1.3,0.5c-0.5,0-0.9-0.2-1.3-0.5c-0.4-0.4-0.5-0.8-0.5-1.3
			c0-0.5,0.2-0.9,0.5-1.3C812.7,324.8,813.1,324.6,813.6,324.6z M815.9,328.3c0.5,0,0.9,0.2,1.3,0.5c0.4,0.4,0.5,0.8,0.5,1.3
			c0,0.5-0.2,1-0.5,1.3c-0.4,0.4-0.8,0.5-1.3,0.5c-0.5,0-0.9-0.2-1.3-0.5c-0.4-0.4-0.5-0.8-0.5-1.3c0-0.5,0.2-0.9,0.5-1.3
			C815,328.5,815.4,328.3,815.9,328.3z"/>
		<path class="st19" d="M838.2,326.9v23.6c0,1-0.3,1.8-1,2.5c-0.7,0.7-1.5,1.1-2.5,1.1h-6.6v-2.7h5.4c0.5,0,0.8-0.2,1.1-0.5
			c0.2-0.3,0.3-0.6,0.3-0.9v-23H838.2z"/>
		<path class="st19" d="M846.6,326.9v26.8L845,355h-1.6v-28.1H846.6z"/>
		<path class="st19" d="M883.2,326.9v24.5h1.9v2.7h-1.9c-0.1,2.9-1,5.1-2.8,6.7c-1.8,1.6-4.2,2.4-7.3,2.4h-4.2c-3,0-5.4-0.8-7.2-2.3
			c-1.9-1.6-2.9-4-2.9-7.1v-7.9l1.6-1.3h1.6v9.2c0,2.5,0.7,4.3,2,5.3c1.3,1,3.6,1.5,7,1.5c3.2,0,5.4-0.4,6.7-1.3
			c1.5-1,2.3-2.9,2.3-5.5v-26.7H883.2z"/>
		<path class="st19" d="M894.9,336.6v13.8c0,0.3,0,0.6-0.1,0.9h2v2.7h-1.5l-1.1-1.3h-0.1c-0.7,0.9-1.6,1.3-2.7,1.3h-6.6v-2.7h5.4
			c0.4,0,0.7-0.1,1-0.4c0.3-0.3,0.5-0.6,0.5-1.1v-13.3H894.9z M888.4,358c0.5,0,0.9,0.2,1.3,0.5c0.4,0.4,0.5,0.8,0.5,1.3
			c0,0.5-0.2,1-0.5,1.3c-0.4,0.4-0.8,0.5-1.3,0.5c-0.5,0-0.9-0.2-1.3-0.5c-0.4-0.4-0.5-0.8-0.5-1.3c0-0.5,0.2-0.9,0.5-1.3
			C887.4,358.2,887.9,358,888.4,358z M893,358c0.5,0,1,0.2,1.3,0.5c0.4,0.4,0.5,0.8,0.5,1.3c0,0.5-0.2,1-0.5,1.3
			c-0.4,0.4-0.8,0.5-1.3,0.5c-0.5,0-0.9-0.2-1.3-0.5c-0.4-0.4-0.5-0.8-0.5-1.3c0-0.5,0.2-0.9,0.5-1.3C892,358.2,892.5,358,893,358z"
			/>
		<path class="st19" d="M906.5,344.9c3.5-5.9,8-8.8,13.5-8.8c3.1,0,5.5,0.9,7.4,2.8c1.7,1.7,2.5,3.8,2.5,6.4v5
			c0,1.1-0.4,1.9-1.1,2.7c-0.7,0.6-1.4,0.9-2.3,0.9h-30v-2.7h6.8v-14.8h3.2V344.9z M926.7,345.1c0-2-0.8-3.6-2.3-4.7
			c-1.3-0.9-2.8-1.4-4.7-1.4c-2,0-4,0.6-5.8,1.8c-3,2-5.5,5.6-7.4,10.7h18.7c1,0,1.4-0.5,1.4-1.4V345.1z"/>
		<path class="st19" d="M942.7,354.1c-2.9,0-5.1-1-6.6-2.9c-1.3-1.6-1.9-3.6-1.9-6.1c0-2.9,0.9-5.1,2.6-6.7c1.5-1.5,3.6-2.2,6.1-2.2
			c2,0,3.6,0.5,4.9,1.5c1.6,1.2,2.4,3,2.4,5.4v8.3h1.2v2.7h-1.2c-0.1,2.7-0.9,4.7-2.4,6.3c-1.1,1.2-2.6,2-4.4,2.4
			c-1,0.3-2.1,0.4-3.3,0.4c-0.6,0-1.2,0-1.7,0l-1.3-1.6v-1.2c0.8,0.1,1.6,0.2,2.4,0.2c4.8,0,7.3-2.1,7.4-6.4H942.7z M946.9,343.1
			c0-1.3-0.4-2.3-1.1-3.1c-0.7-0.7-1.7-1.1-2.9-1.1c-1.7,0-3,0.6-4,1.7c-1,1.1-1.5,2.7-1.5,4.7c0,1.8,0.5,3.2,1.5,4.4
			c1,1.1,2.3,1.7,3.8,1.7h4.2V343.1z"/>
		<path class="st19" d="M961.1,336.6v13.8c0,0.3,0,0.6-0.1,0.9h2v2.7h-1.5l-1.1-1.3h-0.1c-0.7,0.9-1.6,1.3-2.7,1.3h-6.6v-2.7h5.4
			c0.4,0,0.7-0.1,1-0.4c0.3-0.3,0.5-0.6,0.5-1.1v-13.3H961.1z M955,328.3c0.5,0,1,0.2,1.3,0.5c0.4,0.4,0.5,0.8,0.5,1.3
			c0,0.5-0.2,1-0.5,1.3c-0.4,0.4-0.8,0.5-1.3,0.5c-0.5,0-0.9-0.2-1.3-0.5c-0.4-0.4-0.5-0.8-0.5-1.3c0-0.5,0.2-0.9,0.5-1.3
			C954,328.5,954.5,328.3,955,328.3z M959.6,328.3c0.5,0,0.9,0.2,1.3,0.5c0.4,0.4,0.5,0.8,0.5,1.3c0,0.5-0.2,1-0.5,1.3
			c-0.4,0.4-0.8,0.5-1.3,0.5c-0.5,0-1-0.2-1.3-0.5c-0.4-0.4-0.5-0.8-0.5-1.3c0-0.5,0.2-0.9,0.5-1.3
			C958.6,328.5,959.1,328.3,959.6,328.3z"/>
		<path class="st19" d="M972.8,326.9v23.6c0,1-0.3,1.8-1,2.5c-0.7,0.7-1.5,1.1-2.5,1.1h-6.6v-2.7h5.4c0.5,0,0.8-0.2,1.1-0.5
			c0.2-0.3,0.3-0.6,0.3-0.9v-23H972.8z"/>
	</g>
	<path class="st19" d="M1044.5,277.5c3.3,2.2,6.7,4.5,10.1,6.8h-43.8v-6.8H1044.5z"/>
	
		<radialGradient id="SVGID_00000013192984949820526070000000614813245818592897_" cx="1353.8143" cy="245.8721" r="64.0576" gradientUnits="userSpaceOnUse">
		<stop  offset="0" style="stop-color:#FDFDFC"/>
		<stop  offset="0.9944" style="stop-color:#D3D2D2"/>
	</radialGradient>
	
		<polygon style="opacity:0.38;fill:url(#SVGID_00000013192984949820526070000000614813245818592897_);stroke:#DDDEDE;stroke-width:0.25;stroke-miterlimit:10;" points="
		1481,277.5 1481,284.3 1312.3,284.3 1318.6,277.5 	"/>
	<path class="st19" d="M1086,305.4c3.3,2.3,6.6,4.5,10,6.8h-85.3v-6.8H1086z"/>
	
		<radialGradient id="SVGID_00000145052060323161694800000011437254655660297132_" cx="1344.3184" cy="245.8721" r="71.8239" gradientUnits="userSpaceOnUse">
		<stop  offset="0" style="stop-color:#FDFDFC"/>
		<stop  offset="0.9944" style="stop-color:#D3D2D2"/>
	</radialGradient>
	
		<polygon style="opacity:0.38;fill:url(#SVGID_00000145052060323161694800000011437254655660297132_);stroke:#DDDEDE;stroke-width:0.25;stroke-miterlimit:10;" points="
		1481,305.4 1481,312.2 1286.5,312.2 1292.8,305.4 	"/>
	<path class="st19" d="M1132.5,337c1.6,1.1,3.2,2.1,4.8,3.1h-126.6v-6.8h116.3C1128.9,334.5,1130.7,335.8,1132.5,337z"/>
	
		<radialGradient id="SVGID_00000129207063715826398140000004134046383781996168_" cx="1334.438" cy="245.8721" r="80.0348" gradientUnits="userSpaceOnUse">
		<stop  offset="0" style="stop-color:#FDFDFC"/>
		<stop  offset="0.9944" style="stop-color:#D3D2D2"/>
	</radialGradient>
	
		<path style="opacity:0.38;fill:url(#SVGID_00000129207063715826398140000004134046383781996168_);stroke:#DDDEDE;stroke-width:0.25;stroke-miterlimit:10;" d="
		M1481,333.3v6.8h-225.7c3.5-2.1,6.8-4.3,9.9-6.8H1481z"/>
	<g>
		
			<radialGradient id="SVGID_00000162349094263791409180000002728793894087363250_" cx="52.4822" cy="115.9656" r="23.724" gradientUnits="userSpaceOnUse">
			<stop  offset="0" style="stop-color:#F4313A"/>
			<stop  offset="1" style="stop-color:#CE0045"/>
		</radialGradient>
		<path style="fill:url(#SVGID_00000162349094263791409180000002728793894087363250_);" d="M59.6,139.4h-8.2l5.6-18.8H46.8
			l-5.6,18.8H28.4L40.9,97c0.1-0.2,1-0.9,2.8-2.3c1.8-1.4,2.7-2,2.8-2.1c0.1,0,0.2,0,0.3,0h26.5c0.2,0,0.4,0.1,0.6,0.3
			c1.8,2.5,2.7,3.8,2.7,4l-4.3,14.6h0.1l-2.7,9.1h-0.1l-4.3,14.4c0,0.1-0.1,0.3-0.3,0.4l-5.1,3.9C59.8,139.3,59.7,139.4,59.6,139.4z
			 M59.6,111.4L63,99.7h-8.8l-1.7,1.3l-3,10.4H59.6z"/>
		
			<radialGradient id="SVGID_00000048480248441121918520000002742710259268461735_" cx="101.9548" cy="115.9656" r="21.73" gradientUnits="userSpaceOnUse">
			<stop  offset="0" style="stop-color:#F4313A"/>
			<stop  offset="1" style="stop-color:#CE0045"/>
		</radialGradient>
		<path style="fill:url(#SVGID_00000048480248441121918520000002742710259268461735_);" d="M113.2,139.4H82L94.5,97l0.3-0.3l5.1-3.9
			c0.1-0.1,0.3-0.1,0.5-0.1h8.2l-11.7,39.6h8.8l1.7-1.3l1.8-6h12.7l-3,10c0,0.1-0.1,0.3-0.3,0.4l-5.1,3.9
			C113.4,139.3,113.3,139.4,113.2,139.4z"/>
		<path class="st19" d="M189.1,139.4h-8.3l2.5-8.5l0.1-0.1l9.2-31.1h-10l-11.8,39.6H158l11.7-39.6h-10L148,139.4h-12.8L147.8,97
			c0.1-0.2,1-1,2.8-2.3s2.8-2.1,3-2.1h49.3c0.3,0,0.5,0.1,0.6,0.3c1.8,2.6,2.7,3.9,2.7,4.1v0.1c-7.5,25.3-11.3,38-11.3,38.1
			c0,0-0.1,0.1-0.1,0.1l-5.1,3.9C189.5,139.3,189.4,139.4,189.1,139.4z"/>
		<path class="st19" d="M242.7,139.4h-31.1L224.2,97c0.1-0.2,1-0.9,2.8-2.3c1.8-1.4,2.7-2,2.8-2.1c0.1,0,0.2,0,0.3,0h26.4
			c0.3,0,0.5,0.1,0.7,0.3c1.7,2.6,2.6,4,2.6,4.1c0,0.1-3.7,12.7-11.1,37.9c0,0.1-0.1,0.3-0.3,0.4l-5.1,3.9
			C243.1,139.3,243,139.4,242.7,139.4z M235.3,132.1l1.7-1.3l9.2-31.1h-8.8l-1.7,1.3l-9.1,31.1H235.3z"/>
		<path class="st19" d="M296.3,139.4h-31.1l4.3-14.5h12.7l-2.1,7.3h10l3-10l-19.9-9.6c2.9-10.3,4.6-15.7,5-16l4.7-3.6
			c0.3-0.2,0.5-0.3,0.8-0.3h26.4c0.2,0,0.3,0,0.4,0.1l2.8,4.1l-2.9,9.9h-12.8l2.1-6.9H291l-1.6,1.2c-0.5,2-1.1,3.9-1.7,5.8l20,9.7
			l-1.9,6.5l-0.1,0.1l-3.5,11.7c0,0.2-0.1,0.3-0.2,0.4c-0.1,0.1-0.2,0.2-0.3,0.2l-4.9,3.8C296.7,139.3,296.6,139.4,296.3,139.4z"/>
		<path class="st19" d="M350.1,139.4h-8.2l5.6-18.8h-10.1l-5.6,18.8h-12.8L331.4,97c0.1-0.2,1-0.9,2.8-2.3c1.8-1.4,2.7-2,2.8-2.1
			c0.1,0,0.2,0,0.3,0h26.5c0.2,0,0.4,0.1,0.6,0.3c1.8,2.5,2.7,3.8,2.7,4l-4.3,14.6h0.1l-2.7,9.1h-0.1l-4.3,14.4
			c0,0.1-0.1,0.3-0.3,0.4l-5.1,3.9C350.3,139.3,350.2,139.4,350.1,139.4z M350.1,111.4l3.4-11.7h-8.8L343,101l-3,10.4H350.1z"/>
		<path class="st19" d="M385.3,139.4h-12.8L385.1,97c0.1-0.2,1-1,2.8-2.3s2.8-2.1,3-2.1h26.5c0.3,0,0.5,0.1,0.6,0.3
			c1.8,2.6,2.7,3.9,2.7,4.1c0,0.1-1,3.5-3,10.1H405l2.1-7.4h-8.8l-1.6,1.3l-3.5,11.9h14.4l-2.1,7.2H391L385.3,139.4z"/>
		<path class="st19" d="M457.3,139.4h-31.1L438.8,97c0.1-0.2,1-1,2.8-2.3s2.8-2.1,3-2.1H471c0.3,0,0.5,0.1,0.6,0.3
			c1.8,2.6,2.7,3.9,2.7,4.1c0,0.1-1,3.5-3,10.1h-12.7l2.1-7.4H452l-1.6,1.3l-3.5,11.9h13.3l-2.1,7.2h-13.3l-3.6,12h8.8l1.7-1.3
			l1.8-6h12.8c-2.1,6.8-3.1,10.2-3.2,10.3c0,0.1-1.8,1.4-5.2,4.1C457.7,139.3,457.5,139.4,457.3,139.4z"/>
		<path class="st19" d="M510.8,139.4h-8.1l4.5-15l-8.8-4.3l-5.7,19.2h-12.8L492.4,97c0-0.1,0.9-0.8,2.7-2.2c1.8-1.4,2.8-2.1,2.9-2.1
			c0.1,0,9,0,26.7,0c0.3,0,0.5,0.1,0.6,0.3c1.8,2.5,2.7,3.8,2.7,4c0,0.1-0.9,3.3-2.8,9.6c-1.9,6.3-2.8,9.4-2.8,9.5
			c0,0-1.3,1-3.8,3.1l2.5,1.2l-4.3,14.6c0,0.3-0.2,0.5-0.5,0.7l-4.7,3.6C511.3,139.2,511.1,139.4,510.8,139.4z M510.5,112.9
			l3.9-13.2h-8.8L504,101l-3.5,11.9H510.5z"/>
	</g>
</g>
</svg>
